---
layout: post
title: Making iPhone Ringtones using Free Software
date: '2010-10-12T00:35:00.001+01:00'
author: Dylan Beattie
tags:
- howto
modified_time: '2010-10-12T00:36:59.346+01:00'
thumbnail: http://lh3.ggpht.com/_de7B8BtZZIw/TLOe_0HcebI/AAAAAAAAADU/mqXgPDz0ZLA/s72-c/image_thumb%5B5%5D.png?imgmax=800
blogger_id: tag:blogger.com,1999:blog-7295454224203070190.post-5300985739382366414
blogger_orig_url: http://www.dylanbeattie.net/2010/10/making-iphone-ringtones-using-free.html
---

<p>iPhone ringtones are audio files encoded as MPEG-4 audio and then renamed to use the .m4r file extension. If you don’t fancy paying £0.99 for twelve seconds of Van Halen, it’s pretty easy to roll your own iPhone ringtones, and you don’t even need to buy any software to do it. You’ll need:</p>  <ol>   <li><a href="http://ffmpeg.org/"><img style="border-bottom: 0px; border-left: 0px; margin: 0px 0px 0px 20px; display: inline; border-top: 0px; border-right: 0px" border="0" align="right" src="http://ffmpeg.org/ffmpeg-logo.png" width="90" height="30" /></a>An MP3 or WAV file of the song or noise that you want to use as a ringtone. Legally speaking, this could constitute copyright infringement, so please stick to original recordings or your own compositions. </li>    <li><a href="http://audacity.sourceforge.net/"><img style="border-bottom: 0px; border-left: 0px; margin: 0px 0px 0px 20px; display: inline; border-top: 0px; border-right: 0px" border="0" align="right" src="http://audacity.sourceforge.net/images/Audacity-logo-r_50pct.jpg" width="90" height="39" />Audacity</a>, an open-source audio editor. </li>    <li><a href="http://ffmpeg.org/">ffmpeg</a>, the most awesomely powerful audio/video encoder ever. You’ll want to grab one of the Windows binary builds from <a href="http://ffmpeg.arrozcru.org/autobuilds/">http://ffmpeg.arrozcru.org/autobuilds/</a> </li> </ol>  <blockquote>   <p>Aside: I normally have Cygwin, a set of command-line Unix-a-like tools for Windows, installed into c:\windows\cygwin\, and then I add C:\Windows\cygwin\bin\ to my system path. Having done this, it makes sense to install ffmpeg into c:\windows\cygwin\ – it uses the same bin/doc/lib structure as most *nix ports and means I don’t have to add another path to the system PATH variable.</p> </blockquote>  <p>Import your source track into Audacity. Highlight the section you want, copy it, Ctrl-N to get a new file, and paste it. </p>  <p><a href="http://lh6.ggpht.com/_de7B8BtZZIw/TLOewYotX5I/AAAAAAAAADQ/GleZBzpDVm0/s1600-h/image%5B9%5D.png"><img style="border-right-width: 0px; margin: 10px auto; display: block; float: none; border-top-width: 0px; border-bottom-width: 0px; border-left-width: 0px" title="image" border="0" alt="image" src="http://lh3.ggpht.com/_de7B8BtZZIw/TLOe_0HcebI/AAAAAAAAADU/mqXgPDz0ZLA/image_thumb%5B5%5D.png?imgmax=800" width="640" height="449" /></a> </p>  <p>At this point, playing around with effects might be worthwhile – especially selecting the first 1-2 seconds of the clip and using Effect –&gt; Fade In, and applying a corresponding Fade out to the last second or two of your clip. When you’re happy with it, File –&gt; Export as WAV…, and put it somewhere useful – D:\Ringtones\ works for me.</p>  <p>Then you’ll want to turn your WAV into an m4a file:</p>  <blockquote>   <pre><strong>D:\ringtones&gt;ffmpeg –i ringtone.wav ringtone.m4a</strong>

Input #0, wav, from 'ringtone.wav':
  Duration: 00:00:40.30, bitrate: 1411 kb/s
    Stream #0.0: Audio: pcm_s16le, 44100 Hz, 2 channels, s16, 1411 kb/s
Output #0, ipod, to 'ringtone.m4a':
  Metadata:
    encoder         : Lavf52.80.0
    Stream #0.0: Audio: aac, 44100 Hz, 2 channels, s16, 64 kb/s
Stream mapping:
  Stream #0.0 -&gt; #0.0
Press [q] to stop encoding
size=     427kB time=40.31 bitrate=  86.8kbits/s
video:0kB audio:413kB global headers:0kB muxing overhead 3.447648%</pre>
</blockquote>

<p>Once you’re done, either via Windows Explorer or the rename command, rename ringtone.m4a to <strong>ringtone.m4r</strong></p>

<p>Finally, fire up iTunes, go to File –&gt; Add File to Library… and browse to your new ringtone.m4r file. After a moment’s processing, it should show up in the Ringtones library. Right-click, Get Info… and you can replace the name, title, artist and so on, and then you just need to make sure it’s selected under the Ringtones heading on your iPhone sync menu.</p>

<p><a href="http://lh4.ggpht.com/_de7B8BtZZIw/TLOfIqcuEKI/AAAAAAAAADY/60WAgw8DNq0/s1600-h/image%5B7%5D.png"><img style="border-right-width: 0px; margin: 10px auto; display: block; float: none; border-top-width: 0px; border-bottom-width: 0px; border-left-width: 0px" title="image" border="0" alt="image" src="http://lh4.ggpht.com/_de7B8BtZZIw/TLOfREkwukI/AAAAAAAAADc/Nn6iiRO3X-0/image_thumb%5B3%5D.png?imgmax=800" width="640" height="364" /></a></p>

<p></p>

<p></p>

<p></p>

<p></p>

<p>Happy ringtoning.</p>  